<svg width="121" height="122" viewBox="0 0 121 122" fill="none" xmlns="http://www.w3.org/2000/svg">
<path d="M36.6214 91.1582V73.7037H42.7237C43.9396 73.7037 44.9425 73.9139 45.7322 74.3343C46.522 74.7491 47.1101 75.3088 47.4964 76.0133C47.8828 76.7122 48.076 77.4877 48.076 78.34C48.076 79.09 47.9425 79.7093 47.6754 80.198C47.4141 80.6866 47.0675 81.073 46.6357 81.3571C46.2095 81.6412 45.7464 81.8514 45.2464 81.9877V82.1582C45.7805 82.1923 46.3175 82.3798 46.8572 82.7207C47.397 83.0616 47.8487 83.5502 48.2124 84.1866C48.576 84.823 48.7578 85.6014 48.7578 86.5218C48.7578 87.3968 48.5589 88.1838 48.1612 88.8826C47.7635 89.5815 47.1357 90.1355 46.2777 90.5446C45.4197 90.9537 44.3033 91.1582 42.9283 91.1582H36.6214ZM38.7351 89.2832H42.9283C44.3089 89.2832 45.2891 89.0162 45.8686 88.4821C46.4538 87.9423 46.7464 87.2889 46.7464 86.5218C46.7464 85.9309 46.5959 85.3855 46.2947 84.8855C45.9936 84.3798 45.5646 83.9764 45.0078 83.6752C44.451 83.3684 43.7919 83.215 43.0305 83.215H38.7351V89.2832ZM38.7351 81.3741H42.6555C43.2919 81.3741 43.8658 81.2491 44.3771 80.9991C44.8942 80.7491 45.3033 80.3968 45.6044 79.9423C45.9112 79.4877 46.0646 78.9537 46.0646 78.34C46.0646 77.573 45.7976 76.9224 45.2635 76.3883C44.7294 75.8485 43.8828 75.5787 42.7237 75.5787H38.7351V81.3741ZM55.8104 91.465C54.9808 91.465 54.228 91.3088 53.5518 90.9963C52.8757 90.6781 52.3388 90.2207 51.9411 89.6241C51.5433 89.0218 51.3445 88.2946 51.3445 87.4423C51.3445 86.6923 51.4922 86.0843 51.7876 85.6184C52.0831 85.1468 52.478 84.7775 52.9723 84.5105C53.4666 84.2434 54.0121 84.0446 54.6087 83.9139C55.2109 83.7775 55.8161 83.6696 56.424 83.59C57.2195 83.4877 57.8643 83.411 58.3587 83.3599C58.8587 83.3031 59.2223 83.2093 59.4496 83.0787C59.6825 82.948 59.799 82.7207 59.799 82.3968V82.3287C59.799 81.4877 59.5689 80.8343 59.1087 80.3684C58.6541 79.9025 57.9638 79.6696 57.0376 79.6696C56.0774 79.6696 55.3246 79.8798 54.7791 80.3002C54.2337 80.7207 53.8501 81.1696 53.6286 81.6468L51.7195 80.965C52.0604 80.1696 52.5149 79.5502 53.0831 79.1071C53.657 78.6582 54.282 78.3457 54.9581 78.1696C55.6399 77.9877 56.3104 77.8968 56.9695 77.8968C57.3899 77.8968 57.8729 77.948 58.4183 78.0502C58.9695 78.1468 59.5007 78.3485 60.0121 78.6554C60.5291 78.9622 60.9581 79.4252 61.299 80.0446C61.6399 80.6639 61.8104 81.4934 61.8104 82.5332V91.1582H59.799V89.3855H59.6967C59.5604 89.6696 59.3331 89.9735 59.0149 90.2974C58.6967 90.6213 58.2734 90.8968 57.745 91.1241C57.2166 91.3514 56.5717 91.465 55.8104 91.465ZM56.1172 89.6582C56.9126 89.6582 57.5831 89.502 58.1286 89.1895C58.6797 88.877 59.0945 88.4735 59.3729 87.9792C59.657 87.4849 59.799 86.965 59.799 86.4196V84.5787C59.7138 84.6809 59.5263 84.7747 59.2365 84.8599C58.9524 84.9395 58.6229 85.0105 58.2479 85.073C57.8786 85.1298 57.5178 85.1809 57.1655 85.2264C56.8189 85.2662 56.5376 85.3002 56.3217 85.3287C55.799 85.3968 55.3104 85.5076 54.8558 85.661C54.407 85.8088 54.0433 86.0332 53.7649 86.3343C53.4922 86.6298 53.3558 87.0332 53.3558 87.5446C53.3558 88.2434 53.6143 88.7718 54.1314 89.1298C54.6541 89.4821 55.3161 89.6582 56.1172 89.6582ZM65.7543 73.7037H67.8679V89.215H74.0043V73.7037H76.1179V89.215H82.2543V73.7037H84.3679V91.1582H65.7543V73.7037ZM28.9787 93.7037V97.1298H21.2741V111.158H17.0554V93.7037H28.9787ZM32.6435 111.158H28.1094L33.9986 93.7037H39.6151L45.5043 111.158H40.9702L36.8707 98.1014H36.7344L32.6435 111.158ZM32.0384 104.289H41.5156V107.493H32.0384V104.289ZM47.3835 111.158V93.7037H54.5938C55.9006 93.7037 57.0284 93.9593 57.9773 94.4707C58.9318 94.9764 59.6676 95.6838 60.1847 96.5929C60.7017 97.4963 60.9602 98.5474 60.9602 99.7463C60.9602 100.951 60.696 102.005 60.1676 102.908C59.6449 103.806 58.8977 104.502 57.9261 104.996C56.9545 105.491 55.8011 105.738 54.4659 105.738H50.017V102.414H53.6818C54.3182 102.414 54.8494 102.303 55.2756 102.081C55.7074 101.86 56.0341 101.55 56.2557 101.153C56.4773 100.749 56.5881 100.28 56.5881 99.7463C56.5881 99.2065 56.4773 98.7406 56.2557 98.3485C56.0341 97.9508 55.7074 97.644 55.2756 97.4281C54.8438 97.2122 54.3125 97.1042 53.6818 97.1042H51.6023V111.158H47.3835ZM64.706 111.158H60.1719L66.0611 93.7037H71.6776L77.5668 111.158H73.0327L68.9332 98.1014H68.7969L64.706 111.158ZM64.1009 104.289H73.5781V107.493H64.1009V104.289ZM93.7301 93.7037V111.158H89.6562V93.7037H93.7301ZM78.8239 111.158L84.2443 101.92L78.9773 93.7037H84.1761L87.892 100.709H95.6051L99.1847 93.7037H104.358L99.2784 101.868L104.562 111.158H99.4915L96.142 104.596H87.321L83.8608 111.158H78.8239Z" fill="#FFFDFD"/>
<path d="M115.645 18.5926V18.2219L115.29 18.1142L60.6453 1.52157L60.5 1.47746L60.3548 1.52157L5.70959 18.1142L5.35486 18.2219V18.5926L5.35486 64.2222V64.7222H5.85486H16.7839H17.2839V64.2222L17.2839 27.3889H103.716V64.2222V64.7222H104.216H115.145H115.645V64.2222V18.5926ZM99.2516 31.037V30.537H98.7516H22.2484H21.7484V31.037V39.3333V39.8333H22.2484H98.7516H99.2516V39.3333V31.037ZM99.2516 55.9259V55.4259H98.7516H22.2484H21.7484V55.9259L21.7484 64.2222V64.7222H22.2484H98.7516H99.2516V64.2222V55.9259ZM99.2516 43.4815V42.9815H98.7516H22.2484H21.7484V43.4815V51.7778V52.2778H22.2484H98.7516H99.2516V51.7778V43.4815Z" fill="#FFFDFD" stroke="#6FCF97"/>
</svg>
