<svg width="121" height="122" viewBox="0 0 121 122" fill="none" xmlns="http://www.w3.org/2000/svg">
<path d="M16.7335 88.1584V78.0735H20.2593C20.9618 78.0735 21.5412 78.195 21.9976 78.4379C22.4539 78.6776 22.7936 79.0009 23.0169 79.408C23.2401 79.8118 23.3517 80.2599 23.3517 80.7523C23.3517 81.1857 23.2746 81.5435 23.1203 81.8258C22.9693 82.1081 22.769 82.3314 22.5195 82.4955C22.2733 82.6596 22.0058 82.7811 21.7169 82.8599V82.9584C22.0255 82.9781 22.3357 83.0864 22.6476 83.2834C22.9594 83.4804 23.2204 83.7627 23.4305 84.1304C23.6406 84.498 23.7457 84.9478 23.7457 85.4796C23.7457 85.9852 23.6308 86.4398 23.401 86.8436C23.1712 87.2474 22.8084 87.5675 22.3127 87.8038C21.817 88.0402 21.1719 88.1584 20.3775 88.1584H16.7335ZM17.9548 87.0751H20.3775C21.1752 87.0751 21.7415 86.9208 22.0763 86.6122C22.4145 86.3003 22.5835 85.9228 22.5835 85.4796C22.5835 85.1382 22.4965 84.823 22.3226 84.5341C22.1486 84.242 21.9007 84.0089 21.579 83.8349C21.2573 83.6576 20.8765 83.569 20.4366 83.569H17.9548V87.0751ZM17.9548 82.5054H20.2199C20.5876 82.5054 20.9191 82.4331 21.2146 82.2887C21.5133 82.1442 21.7497 81.9407 21.9237 81.6781C22.101 81.4155 22.1896 81.1069 22.1896 80.7523C22.1896 80.3091 22.0353 79.9333 21.7267 79.6247C21.4181 79.3128 20.929 79.1569 20.2593 79.1569H17.9548V82.5054ZM27.8205 88.3357C27.3412 88.3357 26.9062 88.2454 26.5155 88.0648C26.1249 87.881 25.8147 87.6167 25.5849 87.272C25.3551 86.924 25.2402 86.5038 25.2402 86.0114C25.2402 85.5781 25.3255 85.2268 25.4962 84.9576C25.6669 84.6852 25.8951 84.4718 26.1807 84.3175C26.4663 84.1632 26.7815 84.0483 27.1262 83.9728C27.4741 83.894 27.8238 83.8316 28.175 83.7857C28.6346 83.7266 29.0072 83.6822 29.2928 83.6527C29.5817 83.6199 29.7918 83.5657 29.9231 83.4902C30.0577 83.4147 30.125 83.2834 30.125 83.0963V83.0569C30.125 82.571 29.9921 82.1935 29.7262 81.9243C29.4635 81.6551 29.0647 81.5205 28.5296 81.5205C27.9748 81.5205 27.5398 81.642 27.2246 81.8849C26.9095 82.1278 26.6879 82.3872 26.5599 82.6629L25.4568 82.269C25.6538 81.8094 25.9164 81.4516 26.2447 81.1955C26.5763 80.9362 26.9374 80.7556 27.328 80.6538C27.722 80.5488 28.1094 80.4963 28.4902 80.4963C28.7331 80.4963 29.0121 80.5258 29.3273 80.5849C29.6457 80.6407 29.9527 80.7572 30.2481 80.9345C30.5469 81.1118 30.7947 81.3793 30.9917 81.7372C31.1887 82.095 31.2871 82.5743 31.2871 83.1751V88.1584H30.125V87.1341H30.0659C29.9871 87.2983 29.8558 87.4739 29.672 87.661C29.4881 87.8482 29.2436 88.0074 28.9383 88.1387C28.633 88.27 28.2604 88.3357 27.8205 88.3357ZM27.9977 87.2917C28.4573 87.2917 28.8447 87.2014 29.1599 87.0209C29.4783 86.8403 29.7179 86.6072 29.8788 86.3216C30.0429 86.036 30.125 85.7357 30.125 85.4205V84.3569C30.0758 84.416 29.9674 84.4701 29.8 84.5194C29.6359 84.5653 29.4455 84.6064 29.2288 84.6425C29.0154 84.6753 28.807 84.7049 28.6034 84.7311C28.4032 84.7541 28.2407 84.7738 28.1159 84.7902C27.8139 84.8296 27.5316 84.8936 27.269 84.9823C27.0096 85.0676 26.7995 85.1973 26.6387 85.3713C26.4811 85.542 26.4023 85.7751 26.4023 86.0705C26.4023 86.4743 26.5517 86.7796 26.8504 86.9864C27.1524 87.19 27.5349 87.2917 27.9977 87.2917ZM33.5658 78.0735H34.787V87.0357H38.3325V78.0735H39.5537V87.0357H43.0992V78.0735H44.3204V88.1584H33.5658V78.0735ZM57.7377 77.2331V79.3776H52.9152V88.1584H50.2746V77.2331H57.7377ZM60.0316 88.1584H57.1936L60.8798 77.2331H64.3953L68.0815 88.1584H65.2435L62.6775 79.9858H62.5922L60.0316 88.1584ZM59.6528 83.8587H65.5849V85.8645H59.6528V83.8587ZM69.2578 88.1584V77.2331H73.7708C74.5888 77.2331 75.2947 77.3932 75.8887 77.7132C76.4861 78.0298 76.9467 78.4725 77.2703 79.0416C77.594 79.607 77.7558 80.265 77.7558 81.0154C77.7558 81.7693 77.5904 82.429 77.2597 82.9945C76.9325 83.5564 76.4648 83.9921 75.8567 84.3015C75.2485 84.6109 74.5266 84.7656 73.6908 84.7656H70.9062V82.6851H73.2C73.5983 82.6851 73.9309 82.6157 74.1976 82.477C74.4679 82.3383 74.6724 82.1445 74.8111 81.8956C74.9498 81.6431 75.0191 81.3497 75.0191 81.0154C75.0191 80.6775 74.9498 80.3859 74.8111 80.1405C74.6724 79.8915 74.4679 79.6995 74.1976 79.5644C73.9273 79.4292 73.5948 79.3616 73.2 79.3616H71.8984V88.1584H69.2578ZM80.1003 88.1584H77.2623L80.9485 77.2331H84.464L88.1502 88.1584H85.3122L82.7463 79.9858H82.6609L80.1003 88.1584ZM79.7216 83.8587H85.6536V85.8645H79.7216V83.8587ZM98.2673 77.2331V88.1584H95.7174V77.2331H98.2673ZM88.9371 88.1584L92.3299 82.3757L89.0331 77.2331H92.2872L94.6131 81.6182H99.4409L101.681 77.2331H104.92L101.74 82.3437L105.048 88.1584H101.873L99.777 84.0507H94.2557L92.0898 88.1584H88.9371Z" fill="black"/>
<path d="M115.645 18.5926V18.2219L115.29 18.1142L60.6453 1.52157L60.5 1.47746L60.3548 1.52157L5.70959 18.1142L5.35486 18.2219V18.5926L5.35486 64.2222V64.7222H5.85486H16.7839H17.2839V64.2222L17.2839 27.3889H103.716V64.2222V64.7222H104.216H115.145H115.645V64.2222V18.5926ZM99.2516 31.037V30.537H98.7516H22.2484H21.7484V31.037V39.3333V39.8333H22.2484H98.7516H99.2516V39.3333V31.037ZM99.2516 55.9259V55.4259H98.7516H22.2484H21.7484V55.9259L21.7484 64.2222V64.7222H22.2484H98.7516H99.2516V64.2222V55.9259ZM99.2516 43.4815V42.9815H98.7516H22.2484H21.7484V43.4815V51.7778V52.2778H22.2484H98.7516H99.2516V51.7778V43.4815Z" fill="black" stroke="#6FCF97"/>
</svg>
